<svg width="284" height="60" viewBox="0 0 284 60" fill="none" xmlns="http://www.w3.org/2000/svg">
<path d="M71.8594 13.3568C75.6046 13.3568 78.7936 14.786 81.4264 17.6443C84.0963 20.4656 85.4312 23.9364 85.4312 28.0569C85.4312 32.1773 84.0963 35.6667 81.4264 38.5251C78.7936 41.3463 75.6046 42.7569 71.8594 42.7569C67.9658 42.7569 64.9622 41.4019 62.8486 38.6921V41.9773H55.6733V3H62.8486V17.4216C64.9622 14.7118 67.9658 13.3568 71.8594 13.3568ZM65.0179 33.7364C66.464 35.1841 68.2996 35.908 70.5245 35.908C72.7493 35.908 74.5849 35.1841 76.0311 33.7364C77.5143 32.2516 78.2559 30.3584 78.2559 28.0569C78.2559 25.7553 77.5143 23.8807 76.0311 22.433C74.5849 20.9481 72.7493 20.2057 70.5245 20.2057C68.2996 20.2057 66.464 20.9481 65.0179 22.433C63.5717 23.8807 62.8486 25.7553 62.8486 28.0569C62.8486 30.3584 63.5717 32.2516 65.0179 33.7364Z" fill="#1FB055"/>
<path d="M111.628 14.1364H118.803V41.9773H111.628V38.6921C109.477 41.4019 106.455 42.7569 102.562 42.7569C98.8534 42.7569 95.6644 41.3463 92.9945 38.5251C90.3617 35.6667 89.0453 32.1773 89.0453 28.0569C89.0453 23.9364 90.3617 20.4656 92.9945 17.6443C95.6644 14.786 98.8534 13.3568 102.562 13.3568C106.455 13.3568 109.477 14.7118 111.628 17.4216V14.1364ZM98.3899 33.7364C99.836 35.1841 101.672 35.908 103.896 35.908C106.121 35.908 107.957 35.1841 109.403 33.7364C110.886 32.2516 111.628 30.3584 111.628 28.0569C111.628 25.7553 110.886 23.8807 109.403 22.433C107.957 20.9481 106.121 20.2057 103.896 20.2057C101.672 20.2057 99.836 20.9481 98.3899 22.433C96.9437 23.8807 96.2206 25.7553 96.2206 28.0569C96.2206 30.3584 96.9437 32.2516 98.3899 33.7364Z" fill="#1FB055"/>
<path d="M146.446 14.1364H153.621V41.9773H146.446V38.6921C144.295 41.4019 141.273 42.7569 137.38 42.7569C133.672 42.7569 130.483 41.3463 127.813 38.5251C125.18 35.6667 123.864 32.1773 123.864 28.0569C123.864 23.9364 125.18 20.4656 127.813 17.6443C130.483 14.786 133.672 13.3568 137.38 13.3568C141.273 13.3568 144.295 14.7118 146.446 17.4216V14.1364ZM133.208 33.7364C134.654 35.1841 136.49 35.908 138.715 35.908C140.94 35.908 142.775 35.1841 144.221 33.7364C145.704 32.2516 146.446 30.3584 146.446 28.0569C146.446 25.7553 145.704 23.8807 144.221 22.433C142.775 20.9481 140.94 20.2057 138.715 20.2057C136.49 20.2057 134.654 20.9481 133.208 22.433C131.762 23.8807 131.039 25.7553 131.039 28.0569C131.039 30.3584 131.762 32.2516 133.208 33.7364Z" fill="#1FB055"/>
<path d="M168.861 35.2398H181.209V41.9773H159.238V37.1887L170.974 20.8739H159.794V14.1364H180.652V18.925L168.861 35.2398Z" fill="#1FB055"/>
<path d="M205.871 14.1364H213.046V41.9773H205.871V38.6921C203.72 41.4019 200.698 42.7569 196.804 42.7569C193.096 42.7569 189.907 41.3463 187.237 38.5251C184.604 35.6667 183.288 32.1773 183.288 28.0569C183.288 23.9364 184.604 20.4656 187.237 17.6443C189.907 14.786 193.096 13.3568 196.804 13.3568C200.698 13.3568 203.72 14.7118 205.871 17.4216V14.1364ZM192.632 33.7364C194.079 35.1841 195.914 35.908 198.139 35.908C200.364 35.908 202.2 35.1841 203.646 33.7364C205.129 32.2516 205.871 30.3584 205.871 28.0569C205.871 25.7553 205.129 23.8807 203.646 22.433C202.2 20.9481 200.364 20.2057 198.139 20.2057C195.914 20.2057 194.079 20.9481 192.632 22.433C191.186 23.8807 190.463 25.7553 190.463 28.0569C190.463 30.3584 191.186 32.2516 192.632 33.7364Z" fill="#1FB055"/>
<path d="M240.689 14.1364H247.864V41.9773H240.689V38.6921C238.538 41.4019 235.516 42.7569 231.622 42.7569C227.914 42.7569 224.725 41.3463 222.055 38.5251C219.423 35.6667 218.106 32.1773 218.106 28.0569C218.106 23.9364 219.423 20.4656 222.055 17.6443C224.725 14.786 227.914 13.3568 231.622 13.3568C235.516 13.3568 238.538 14.7118 240.689 17.4216V14.1364ZM227.451 33.7364C228.897 35.1841 230.732 35.908 232.957 35.908C235.182 35.908 237.018 35.1841 238.464 33.7364C239.947 32.2516 240.689 30.3584 240.689 28.0569C240.689 25.7553 239.947 23.8807 238.464 22.433C237.018 20.9481 235.182 20.2057 232.957 20.2057C230.732 20.2057 228.897 20.9481 227.451 22.433C226.004 23.8807 225.281 25.7553 225.281 28.0569C225.281 30.3584 226.004 32.2516 227.451 33.7364Z" fill="#1FB055"/>
<path d="M261.546 18.925C262.213 17.1432 263.307 15.8068 264.827 14.9159C266.385 14.025 268.109 13.5796 270 13.5796V21.5978C267.813 21.3379 265.847 21.7834 264.104 22.9341C262.399 24.0849 261.546 25.9966 261.546 28.6694V41.9773H254.37V14.1364H261.546V18.925Z" fill="#1FB055"/>
<path d="M40.8174 26.3135L44.471 10.2203C44.5327 9.94838 44.5324 9.66607 44.4702 9.3943C44.4081 9.12252 44.2855 8.86825 44.1118 8.65036C43.938 8.43246 43.7175 8.25653 43.4665 8.13562C43.2155 8.01471 42.9406 7.95193 42.6621 7.95193H12.3049L11.5963 4.4848C11.5107 4.06562 11.2831 3.6889 10.9519 3.41836C10.6208 3.14781 10.2065 3.00003 9.77912 3L1.85498 3C1.36301 3 0.891188 3.19564 0.543312 3.54389C0.195435 3.89214 0 4.36447 0 4.85697L0 6.09496C0 6.58746 0.195435 7.05978 0.543312 7.40803C0.891188 7.75628 1.36301 7.95193 1.85498 7.95193H7.25611L12.6856 34.5238C11.8988 34.9755 11.2737 35.6631 10.8984 36.4896C10.5231 37.3161 10.4166 38.2397 10.5939 39.1301C10.7713 40.0205 11.2235 40.8326 11.8868 41.4518C12.55 42.071 13.3908 42.466 14.2904 42.5811C15.19 42.6961 16.103 42.5254 16.9005 42.093C17.6979 41.6606 18.3396 40.9883 18.7348 40.1712C19.1301 39.354 19.2589 38.4333 19.1032 37.5389C18.9475 36.6444 18.5151 35.8216 17.8671 35.1864H34.0705C33.414 35.8308 32.9797 36.6677 32.8304 37.5758C32.6811 38.4839 32.8246 39.4161 33.2401 40.237C33.6556 41.058 34.3216 41.7251 35.1414 42.1417C35.9612 42.5583 36.8922 42.7026 37.7994 42.5538C38.7067 42.405 39.543 41.9708 40.1871 41.3141C40.8313 40.6574 41.2497 39.8124 41.3818 38.9016C41.5139 37.9908 41.3528 37.0616 40.9218 36.2487C40.4908 35.4357 39.8124 34.7813 38.9849 34.3804L39.4114 32.502C39.473 32.2301 39.4728 31.9478 39.4106 31.676C39.3484 31.4043 39.2259 31.15 39.0522 30.9321C38.8784 30.7142 38.6578 30.5383 38.4069 30.4174C38.1559 30.2964 37.881 30.2337 37.6025 30.2337H16.8578L16.3519 27.7577H39.0082C39.4286 27.7579 39.8366 27.6151 40.1654 27.3527C40.4941 27.0903 40.724 26.7238 40.8174 26.3135Z" fill="#1FB055"/>
<path d="M30.5672 10.9291C30.5172 10.8762 30.5903 10.921 28.1285 12.96C27.3599 13.5963 22.5384 18.0273 21.2586 19.2515C25.7013 18.5655 21.8335 18.8793 21.2587 19.2308C21.0533 19.3558 25.3502 18.8909 25.2158 18.9855C25.55 18.8774 21.2587 19.2308 21.2587 19.2308L24.1744 19.8465L21.3437 25.0748L21.5218 24.8468L21.3437 25.0748L30.5765 17.0474L27.7005 16.3654L25.2136 17.3504L25.8655 20.0645" fill="white"/>
<path d="M275.23 2V2.88H273.16V9H272.24V2.88H270.18V2H275.23ZM282.7 2V9H281.78V3.53L279.49 7.34H279.37L277.08 3.54V9H276.15V2H277.2L279.43 5.7L281.65 2H282.7Z" fill="black"/>
<rect x="185" y="52" width="3" height="3" rx="1.5" fill="#1FB055"/>
<path d="M113.48 50C114.433 50 115.223 50.34 115.85 51.02C116.483 51.6933 116.8 52.52 116.8 53.5C116.8 54.48 116.483 55.31 115.85 55.99C115.223 56.6633 114.433 57 113.48 57H110.75V50H113.48ZM113.48 56.12C114.193 56.12 114.777 55.87 115.23 55.37C115.683 54.87 115.91 54.2467 115.91 53.5C115.91 52.7533 115.683 52.13 115.23 51.63C114.777 51.13 114.193 50.88 113.48 50.88H111.68V56.12H113.48ZM118.278 51.09C118.111 51.09 117.971 51.0333 117.858 50.92C117.744 50.8067 117.688 50.67 117.688 50.51C117.688 50.35 117.744 50.2133 117.858 50.1C117.971 49.98 118.111 49.92 118.278 49.92C118.438 49.92 118.574 49.98 118.688 50.1C118.801 50.2133 118.858 50.35 118.858 50.51C118.858 50.67 118.801 50.8067 118.688 50.92C118.574 51.0333 118.438 51.09 118.278 51.09ZM117.838 57V52H118.708V57H117.838ZM120.775 53.35C120.775 53.5433 120.872 53.7 121.065 53.82C121.259 53.9333 121.492 54.0267 121.765 54.1C122.039 54.1667 122.312 54.2467 122.585 54.34C122.859 54.4267 123.092 54.58 123.285 54.8C123.479 55.0133 123.575 55.29 123.575 55.63C123.575 56.0833 123.399 56.4467 123.045 56.72C122.699 56.9933 122.252 57.13 121.705 57.13C121.219 57.13 120.802 57.0233 120.455 56.81C120.109 56.5967 119.862 56.3133 119.715 55.96L120.465 55.53C120.545 55.77 120.695 55.96 120.915 56.1C121.135 56.24 121.399 56.31 121.705 56.31C121.992 56.31 122.229 56.2567 122.415 56.15C122.602 56.0367 122.695 55.8633 122.695 55.63C122.695 55.4367 122.599 55.2833 122.405 55.17C122.212 55.05 121.979 54.9567 121.705 54.89C121.432 54.8167 121.159 54.7333 120.885 54.64C120.612 54.5467 120.379 54.3933 120.185 54.18C119.992 53.9667 119.895 53.6933 119.895 53.36C119.895 52.9267 120.062 52.57 120.395 52.29C120.735 52.01 121.159 51.87 121.665 51.87C122.072 51.87 122.432 51.9633 122.745 52.15C123.065 52.33 123.305 52.5833 123.465 52.91L122.735 53.32C122.555 52.8933 122.199 52.68 121.665 52.68C121.419 52.68 121.209 52.74 121.035 52.86C120.862 52.9733 120.775 53.1367 120.775 53.35ZM126.819 57.13C126.065 57.13 125.439 56.88 124.939 56.38C124.439 55.8733 124.189 55.2467 124.189 54.5C124.189 53.7533 124.439 53.13 124.939 52.63C125.439 52.1233 126.065 51.87 126.819 51.87C127.312 51.87 127.755 51.99 128.149 52.23C128.542 52.4633 128.835 52.78 129.029 53.18L128.299 53.6C128.172 53.3333 127.975 53.12 127.709 52.96C127.449 52.8 127.152 52.72 126.819 52.72C126.319 52.72 125.899 52.89 125.559 53.23C125.225 53.57 125.059 53.9933 125.059 54.5C125.059 55 125.225 55.42 125.559 55.76C125.899 56.1 126.319 56.27 126.819 56.27C127.152 56.27 127.452 56.1933 127.719 56.04C127.985 55.88 128.189 55.6667 128.329 55.4L129.069 55.83C128.855 56.2233 128.549 56.54 128.149 56.78C127.749 57.0133 127.305 57.13 126.819 57.13ZM134.079 56.37C133.566 56.8767 132.943 57.13 132.209 57.13C131.476 57.13 130.853 56.8767 130.339 56.37C129.833 55.8633 129.579 55.24 129.579 54.5C129.579 53.76 129.833 53.1367 130.339 52.63C130.853 52.1233 131.476 51.87 132.209 51.87C132.943 51.87 133.566 52.1233 134.079 52.63C134.593 53.1367 134.849 53.76 134.849 54.5C134.849 55.24 134.593 55.8633 134.079 56.37ZM132.209 56.28C132.709 56.28 133.129 56.11 133.469 55.77C133.809 55.43 133.979 55.0067 133.979 54.5C133.979 53.9933 133.809 53.57 133.469 53.23C133.129 52.89 132.709 52.72 132.209 52.72C131.716 52.72 131.299 52.89 130.959 53.23C130.619 53.57 130.449 53.9933 130.449 54.5C130.449 55.0067 130.619 55.43 130.959 55.77C131.299 56.11 131.716 56.28 132.209 56.28ZM139.18 52H140.12L138.12 57H137.1L135.1 52H136.04L137.61 56.07L139.18 52ZM141.27 54.9C141.357 55.3467 141.56 55.6933 141.88 55.94C142.207 56.1867 142.607 56.31 143.08 56.31C143.74 56.31 144.22 56.0667 144.52 55.58L145.26 56C144.773 56.7533 144.04 57.13 143.06 57.13C142.267 57.13 141.62 56.8833 141.12 56.39C140.627 55.89 140.38 55.26 140.38 54.5C140.38 53.7467 140.623 53.12 141.11 52.62C141.597 52.12 142.227 51.87 143 51.87C143.733 51.87 144.33 52.13 144.79 52.65C145.257 53.1633 145.49 53.7833 145.49 54.51C145.49 54.6367 145.48 54.7667 145.46 54.9H141.27ZM143 52.69C142.533 52.69 142.147 52.8233 141.84 53.09C141.533 53.35 141.343 53.7 141.27 54.14H144.61C144.537 53.6667 144.35 53.3067 144.05 53.06C143.75 52.8133 143.4 52.69 143 52.69ZM147.36 52.84C147.647 52.22 148.167 51.91 148.92 51.91V52.82C148.493 52.8 148.127 52.9133 147.82 53.16C147.513 53.4067 147.36 53.8033 147.36 54.35V57H146.49V52H147.36V52.84Z" fill="#1FB055"/>
<path d="M156 53.5C156 52.6716 156.672 52 157.5 52C158.328 52 159 52.6716 159 53.5C159 54.3284 158.328 55 157.5 55C156.672 55 156 54.3284 156 53.5Z" fill="#1FB055"/>
<path d="M167.01 57.13C166.357 57.13 165.797 56.9767 165.33 56.67C164.87 56.3633 164.547 55.9433 164.36 55.41L165.16 54.95C165.433 55.7967 166.057 56.22 167.03 56.22C167.51 56.22 167.877 56.1233 168.13 55.93C168.383 55.73 168.51 55.4667 168.51 55.14C168.51 54.8067 168.383 54.5567 168.13 54.39C167.877 54.2233 167.453 54.0467 166.86 53.86C166.567 53.7667 166.343 53.6933 166.19 53.64C166.037 53.58 165.843 53.4933 165.61 53.38C165.383 53.26 165.213 53.14 165.1 53.02C164.987 52.8933 164.883 52.73 164.79 52.53C164.703 52.33 164.66 52.1033 164.66 51.85C164.66 51.2433 164.873 50.7633 165.3 50.41C165.727 50.05 166.247 49.87 166.86 49.87C167.413 49.87 167.893 50.01 168.3 50.29C168.713 50.57 169.023 50.94 169.23 51.4L168.45 51.85C168.15 51.13 167.62 50.77 166.86 50.77C166.48 50.77 166.173 50.8633 165.94 51.05C165.707 51.2367 165.59 51.49 165.59 51.81C165.59 52.1167 165.7 52.35 165.92 52.51C166.14 52.67 166.52 52.8367 167.06 53.01C167.253 53.07 167.39 53.1133 167.47 53.14C167.55 53.1667 167.673 53.2133 167.84 53.28C168.013 53.3467 168.14 53.4 168.22 53.44C168.3 53.48 168.407 53.5367 168.54 53.61C168.68 53.6833 168.783 53.7533 168.85 53.82C168.917 53.8867 168.993 53.97 169.08 54.07C169.173 54.1633 169.24 54.26 169.28 54.36C169.32 54.46 169.353 54.5767 169.38 54.71C169.413 54.8367 169.43 54.9733 169.43 55.12C169.43 55.7333 169.207 56.2233 168.76 56.59C168.313 56.95 167.73 57.13 167.01 57.13ZM171.168 54.9C171.255 55.3467 171.458 55.6933 171.778 55.94C172.105 56.1867 172.505 56.31 172.978 56.31C173.638 56.31 174.118 56.0667 174.418 55.58L175.158 56C174.672 56.7533 173.938 57.13 172.958 57.13C172.165 57.13 171.518 56.8833 171.018 56.39C170.525 55.89 170.278 55.26 170.278 54.5C170.278 53.7467 170.522 53.12 171.008 52.62C171.495 52.12 172.125 51.87 172.898 51.87C173.632 51.87 174.228 52.13 174.688 52.65C175.155 53.1633 175.388 53.7833 175.388 54.51C175.388 54.6367 175.378 54.7667 175.358 54.9H171.168ZM172.898 52.69C172.432 52.69 172.045 52.8233 171.738 53.09C171.432 53.35 171.242 53.7 171.168 54.14H174.508C174.435 53.6667 174.248 53.3067 173.948 53.06C173.648 52.8133 173.298 52.69 172.898 52.69ZM176.389 57V49.7H177.259V57H176.389ZM178.586 57V49.7H179.456V57H178.586Z" fill="#1FB055"/>
<path d="M200.3 50V57H199.38V51.53L197.09 55.34H196.97L194.68 51.54V57H193.75V50H194.8L197.03 53.7L199.25 50H200.3ZM205.847 52H206.717V57H205.847V56.14C205.414 56.8 204.784 57.13 203.957 57.13C203.257 57.13 202.66 56.8767 202.167 56.37C201.674 55.8567 201.427 55.2333 201.427 54.5C201.427 53.7667 201.674 53.1467 202.167 52.64C202.66 52.1267 203.257 51.87 203.957 51.87C204.784 51.87 205.414 52.2 205.847 52.86V52ZM204.067 56.29C204.574 56.29 204.997 56.12 205.337 55.78C205.677 55.4333 205.847 55.0067 205.847 54.5C205.847 53.9933 205.677 53.57 205.337 53.23C204.997 52.8833 204.574 52.71 204.067 52.71C203.567 52.71 203.147 52.8833 202.807 53.23C202.467 53.57 202.297 53.9933 202.297 54.5C202.297 55.0067 202.467 55.4333 202.807 55.78C203.147 56.12 203.567 56.29 204.067 56.29ZM210.525 51.87C211.112 51.87 211.582 52.0567 211.935 52.43C212.288 52.7967 212.465 53.2967 212.465 53.93V57H211.595V53.98C211.595 53.5733 211.485 53.26 211.265 53.04C211.045 52.8133 210.742 52.7 210.355 52.7C209.922 52.7 209.572 52.8367 209.305 53.11C209.038 53.3767 208.905 53.79 208.905 54.35V57H208.035V52H208.905V52.72C209.258 52.1533 209.798 51.87 210.525 51.87ZM217.82 52H218.69V57H217.82V56.14C217.386 56.8 216.756 57.13 215.93 57.13C215.23 57.13 214.633 56.8767 214.14 56.37C213.646 55.8567 213.4 55.2333 213.4 54.5C213.4 53.7667 213.646 53.1467 214.14 52.64C214.633 52.1267 215.23 51.87 215.93 51.87C216.756 51.87 217.386 52.2 217.82 52.86V52ZM216.04 56.29C216.546 56.29 216.97 56.12 217.31 55.78C217.65 55.4333 217.82 55.0067 217.82 54.5C217.82 53.9933 217.65 53.57 217.31 53.23C216.97 52.8833 216.546 52.71 216.04 52.71C215.54 52.71 215.12 52.8833 214.78 53.23C214.44 53.57 214.27 53.9933 214.27 54.5C214.27 55.0067 214.44 55.4333 214.78 55.78C215.12 56.12 215.54 56.29 216.04 56.29ZM224.158 52H225.018V56.79C225.018 57.53 224.768 58.1033 224.268 58.51C223.768 58.9233 223.168 59.13 222.468 59.13C221.908 59.13 221.424 59.0233 221.018 58.81C220.611 58.6033 220.304 58.3033 220.098 57.91L220.858 57.48C221.131 58.04 221.674 58.32 222.488 58.32C223.008 58.32 223.414 58.1833 223.708 57.91C224.008 57.6367 224.158 57.2633 224.158 56.79V56.08C223.718 56.7467 223.091 57.08 222.278 57.08C221.564 57.08 220.961 56.8267 220.468 56.32C219.974 55.8133 219.728 55.1967 219.728 54.47C219.728 53.7433 219.974 53.13 220.468 52.63C220.961 52.1233 221.564 51.87 222.278 51.87C223.098 51.87 223.724 52.2 224.158 52.86V52ZM221.108 55.74C221.448 56.08 221.871 56.25 222.378 56.25C222.884 56.25 223.308 56.08 223.648 55.74C223.988 55.4 224.158 54.9767 224.158 54.47C224.158 53.97 223.988 53.55 223.648 53.21C223.308 52.87 222.884 52.7 222.378 52.7C221.871 52.7 221.448 52.87 221.108 53.21C220.768 53.55 220.598 53.97 220.598 54.47C220.598 54.9767 220.768 55.4 221.108 55.74ZM226.946 54.9C227.032 55.3467 227.236 55.6933 227.556 55.94C227.882 56.1867 228.282 56.31 228.756 56.31C229.416 56.31 229.896 56.0667 230.196 55.58L230.936 56C230.449 56.7533 229.716 57.13 228.736 57.13C227.942 57.13 227.296 56.8833 226.796 56.39C226.302 55.89 226.056 55.26 226.056 54.5C226.056 53.7467 226.299 53.12 226.786 52.62C227.272 52.12 227.902 51.87 228.676 51.87C229.409 51.87 230.006 52.13 230.466 52.65C230.932 53.1633 231.166 53.7833 231.166 54.51C231.166 54.6367 231.156 54.7667 231.136 54.9H226.946ZM228.676 52.69C228.209 52.69 227.822 52.8233 227.516 53.09C227.209 53.35 227.019 53.7 226.946 54.14H230.286C230.212 53.6667 230.026 53.3067 229.726 53.06C229.426 52.8133 229.076 52.69 228.676 52.69Z" fill="#1FB055"/>
<path d="M248.29 50C248.937 50 249.473 50.2167 249.9 50.65C250.333 51.0767 250.55 51.61 250.55 52.25C250.55 52.8833 250.333 53.4167 249.9 53.85C249.473 54.2833 248.937 54.5 248.29 54.5H246.68V57H245.75V50H248.29ZM248.29 53.63C248.677 53.63 248.997 53.5 249.25 53.24C249.503 52.9733 249.63 52.6433 249.63 52.25C249.63 51.85 249.503 51.52 249.25 51.26C248.997 51 248.677 50.87 248.29 50.87H246.68V53.63H248.29ZM255.318 52H256.188V57H255.318V56.14C254.884 56.8 254.254 57.13 253.428 57.13C252.728 57.13 252.131 56.8767 251.638 56.37C251.144 55.8567 250.898 55.2333 250.898 54.5C250.898 53.7667 251.144 53.1467 251.638 52.64C252.131 52.1267 252.728 51.87 253.428 51.87C254.254 51.87 254.884 52.2 255.318 52.86V52ZM253.538 56.29C254.044 56.29 254.468 56.12 254.808 55.78C255.148 55.4333 255.318 55.0067 255.318 54.5C255.318 53.9933 255.148 53.57 254.808 53.23C254.468 52.8833 254.044 52.71 253.538 52.71C253.038 52.71 252.618 52.8833 252.278 53.23C251.938 53.57 251.768 53.9933 251.768 54.5C251.768 55.0067 251.938 55.4333 252.278 55.78C252.618 56.12 253.038 56.29 253.538 56.29ZM260.996 52H261.926L259.886 57.31C259.672 57.8767 259.372 58.3067 258.986 58.6C258.606 58.9 258.166 59.0333 257.666 59V58.19C258.279 58.2367 258.729 57.8967 259.016 57.17L259.106 56.98L256.926 52H257.856L259.556 55.92L260.996 52Z" fill="#1FB055"/>
<rect x="237" y="52" width="3" height="3" rx="1.5" fill="#1FB055"/>
</svg>
